<svg width="177" height="51" viewBox="0 0 177 51" fill="none" xmlns="http://www.w3.org/2000/svg">
<path d="M46.256 2.076L46.3 2.252C46.432 2.384 46.52 2.604 46.52 2.736C46.52 3.132 45.64 4.628 44.496 6.08C40.272 11.536 33.32 17.124 25.312 21.568C24.608 22.008 24.476 22.096 24.212 22.668C24.08 23.02 23.992 23.328 24.036 23.372C24.08 23.416 24.652 23.636 25.312 23.812C28.524 24.692 32.396 26.408 34.772 27.948C37.808 29.972 39.568 32.392 38.292 32.876C37.852 33.008 37.544 32.744 36.62 31.38C36.224 30.764 35.608 30.016 35.256 29.708C33.892 28.432 31.34 27.024 28.304 25.836C26.544 25.132 23.816 24.252 23.596 24.34C23.464 24.34 22.056 27.508 20.648 30.852C19.68 33.14 19.152 34.108 18.756 34.504C18.36 34.812 18.14 34.812 17.832 34.504C17.304 34.02 17.524 33.272 19.064 30.5C19.988 28.916 22.452 24.032 22.364 23.944C22.364 23.944 22.056 23.856 21.748 23.812C21.132 23.68 21.132 23.68 19.68 24.34C12.684 27.508 5.512 29.444 2.608 28.96C0.804 28.652 0.056 27.772 0.672 26.584C1.288 25.264 4.192 23.856 7.888 23.02C11.672 22.14 16.204 21.964 19.9 22.492L20.956 22.668L23.64 21.348L25.004 18.092C27.82 11.536 28.92 8.324 29.228 5.684C29.448 3.792 29.096 2.604 28.172 2.076C27.82 1.856 27.6 1.856 26.764 1.856C25.224 1.856 23.2 2.648 20.868 4.1C17.216 6.388 12.86 10.876 11.408 13.868C10.836 15.1 10.836 15.408 11.144 15.628C11.32 15.716 11.496 16.024 11.584 16.244C11.672 16.552 11.672 16.684 11.496 17.08C11.144 17.828 10.352 17.96 9.78 17.344C9.516 17.036 9.472 16.948 9.516 16.024C9.516 15.232 9.604 14.88 9.868 14.308C10.748 12.328 12.156 10.436 14.444 8.148C17.128 5.464 19.636 3.616 22.408 2.252C24.388 1.24 25.752 0.887998 26.984 0.931998C27.996 1.02 28.436 1.152 28.964 1.68C29.844 2.56 30.108 3.924 29.844 5.904C29.448 8.456 28.128 12.636 26.148 17.696C25.532 19.192 25.048 20.468 25.092 20.468C25.18 20.556 29.316 18.048 31.428 16.596C38.512 11.712 44.496 5.772 45.244 2.868C45.332 2.384 45.464 2.164 45.684 2.076C45.948 1.9 46.036 1.9 46.256 2.076ZM18.844 23.768L19.46 23.504L18.8 23.372C17.744 23.196 11.98 23.24 10.748 23.416C9.076 23.636 7.052 24.076 5.908 24.472C3.048 25.396 0.892 27.024 1.64 27.684C2.124 28.036 4.368 28.036 6.656 27.64C10.044 27.068 15.28 25.396 18.844 23.768ZM22.936 23.02H22.98C23.024 22.844 22.98 22.844 22.804 22.932C22.54 23.108 22.496 23.196 22.716 23.196C22.804 23.196 22.892 23.108 22.936 23.02ZM67.0793 26.672L67.1673 26.628C67.3433 26.804 67.2993 27.244 67.0793 27.42C66.9473 27.552 66.9033 27.552 66.7273 27.42C66.4193 27.156 64.9233 27.42 59.7313 28.564C55.3753 29.488 54.1433 29.752 52.3833 29.972C50.6673 30.192 49.7873 30.192 48.9513 29.972C47.8513 29.708 47.2353 28.96 47.2353 27.992C47.2353 27.244 47.5433 26.584 48.0713 26.012C48.8633 25.264 49.7873 25.176 50.2273 25.88C50.6233 26.496 50.3153 27.552 49.3473 28.564C49.1273 28.784 48.9953 29.004 48.9953 29.048C49.0393 29.092 49.6113 29.136 50.2273 29.18C52.1633 29.224 54.8473 28.784 59.5113 27.728C64.7913 26.496 66.5513 26.232 67.0793 26.672ZM48.5553 27.728C48.7313 27.596 48.9953 27.288 49.0833 27.068C49.2153 26.848 49.3033 26.628 49.2593 26.628C49.1273 26.496 48.2473 27.464 48.2473 27.728V28.036L48.5553 27.728ZM93.4402 26.1H93.3522C93.5282 26.188 93.5282 26.584 93.3962 26.672C93.2202 26.76 84.9922 29.092 83.5402 29.488C81.6042 29.972 80.5042 30.104 79.4042 30.06C78.6562 30.016 78.3482 29.972 77.8202 29.708C76.6762 29.092 76.2802 28.256 76.1042 25.924C75.9722 24.56 75.8402 23.944 75.5762 23.768C75.2682 23.548 74.5642 23.68 73.5962 24.164C71.7482 25.088 69.9442 26.408 67.7442 28.564C67.0402 29.18 66.3802 29.796 66.2042 29.884C65.8082 30.192 65.4562 30.148 65.2362 29.84C64.9722 29.444 65.0162 29.004 65.5882 27.332C66.5562 24.56 67.0402 23.9 67.7442 24.56C68.0962 24.956 68.0522 25.528 67.4362 26.936L67.2602 27.376L67.7442 26.936C70.2082 24.824 71.5722 23.856 73.2002 23.064C74.9602 22.272 76.0602 22.316 76.6762 23.328C76.9842 23.768 77.1162 24.34 77.2922 26.408C77.4242 27.86 77.6882 28.432 78.3922 28.828C79.4482 29.4 81.2962 29.18 85.9602 27.948C90.9762 26.584 93.2642 26.012 93.4402 26.1ZM135.938 12.284H135.85C136.114 12.9 136.026 13.78 135.718 14.484C135.322 15.32 133.782 16.86 132.99 17.256C131.494 17.96 130.35 17.564 130.35 16.332C130.35 15.892 130.438 15.716 130.658 15.452C130.878 15.32 131.098 15.188 131.186 15.188C131.494 15.188 133.958 13.956 134.354 13.56C134.882 13.12 134.97 12.856 134.75 12.46C134.046 11.096 130.878 9.996 126.214 9.468C122.782 9.072 116.402 9.072 111.87 9.424C109.406 9.6 105.71 9.996 105.534 10.084C105.358 10.172 104.082 13.032 103.818 13.956C103.73 14.264 103.598 14.616 103.554 14.704C103.378 14.88 102.146 17.652 101.53 19.06C101.31 19.588 99.9903 22.624 98.5823 25.88C94.6663 34.724 91.9823 41.236 90.2663 45.944C89.2983 48.628 88.7263 49.816 88.1543 50.344C87.6703 50.784 87.3623 50.916 87.0543 50.784C86.4823 50.564 86.3063 49.948 86.5703 49.024C86.7463 48.496 87.1423 47.484 87.4943 46.648C87.8023 45.988 88.6823 44.184 89.3863 42.644C90.1343 41.06 90.8383 39.432 90.9703 39.036C91.6743 36.572 92.4663 32.832 92.9063 29.884C93.1703 28.036 93.2143 22.8 92.9503 21.48C92.5543 19.192 91.7623 17.124 90.7943 15.628C90.2223 14.792 89.0343 13.384 88.6823 13.208C88.5943 13.164 88.1983 13.164 87.7143 13.296C84.7663 13.956 78.5183 15.408 72.7103 16.816C60.2583 19.808 56.7823 20.468 54.1863 20.512C52.8223 20.556 52.2503 20.38 51.8543 19.94C51.5463 19.544 51.5903 19.104 51.9863 18.488C52.8663 17.08 57.3543 14.352 61.8863 12.46C63.7783 11.624 67.6943 10.348 69.5423 9.864C77.3303 7.972 83.8423 8.544 88.2423 11.536L89.1663 12.196L90.0023 12.02C96.2063 10.744 100.782 9.908 103.686 9.512L104.786 9.38L104.918 8.94C104.962 8.764 105.006 8.456 105.006 8.28C105.006 7.972 105.402 7.532 105.622 7.532C105.886 7.532 106.282 7.928 106.282 8.192C106.282 8.324 106.194 8.544 106.106 8.764C106.018 8.94 105.93 9.116 105.974 9.16C106.018 9.16 107.074 9.072 108.394 8.94C112.486 8.544 114.334 8.456 118.646 8.456C122.782 8.456 124.498 8.544 127.27 8.94C132.154 9.556 135.322 10.788 135.938 12.284ZM86.4383 12.856L87.7583 12.592L87.3183 12.328C83.5343 9.996 78.6063 9.292 72.5783 10.304C66.9903 11.228 59.7743 14 54.8023 17.124C53.5263 17.916 52.1183 19.104 52.1183 19.412C52.1183 19.544 52.2943 19.676 52.4703 19.764C52.9103 19.984 54.9343 19.984 56.4743 19.764C59.0263 19.412 63.1183 18.488 70.8623 16.596C75.7463 15.408 84.3703 13.296 86.4383 12.856ZM102.85 13.956L102.806 13.868C102.938 13.78 104.302 10.348 104.214 10.26C104.17 10.172 101.222 10.612 98.6263 11.096C96.5583 11.448 89.8263 12.768 89.7823 12.856C89.7383 12.856 89.9583 13.164 90.2223 13.472C91.9823 15.232 93.1703 17.872 93.7423 21.084C94.0063 22.448 94.0943 26.54 93.9183 28.476C93.6983 30.5 93.2143 33.8 92.9063 35.12C92.8183 35.56 93.6543 33.888 97.3503 26.1C101.398 17.52 102.454 15.232 102.542 14.88C102.586 14.396 102.718 14 102.85 13.956ZM172.939 16.948L173.071 17.168C173.071 16.904 173.335 16.552 173.599 16.464C174.127 16.244 174.831 14.308 175.007 12.328C175.271 10.172 174.523 8.368 172.983 7.62C172.367 7.312 172.235 7.312 171.399 7.312C169.067 7.312 166.339 8.808 163.611 11.58C159.915 15.276 156.791 20.996 155.603 26.1C155.295 27.64 155.207 29.884 155.427 30.896C155.779 32.216 156.395 33.096 157.363 33.58C158.067 33.888 159.255 34.02 160.223 33.756C161.499 33.404 163.083 32.524 164.799 31.116C166.647 29.664 170.343 25.704 172.191 23.196C173.247 21.788 173.599 21.436 173.907 21.436C174.391 21.436 174.479 21.7 174.391 23.284C174.303 25.088 173.951 27.068 173.511 28.388C173.467 28.564 173.467 28.564 173.775 28.476C174.215 28.388 174.391 28.564 174.303 28.96C174.303 29.136 174.127 29.224 173.687 29.4L173.159 29.576L172.807 30.456C172.235 31.908 171.179 34.02 170.431 35.12C168.847 37.496 166.911 38.86 165.943 38.244C165.063 37.672 165.107 36.264 166.075 34.68C167.219 32.92 169.331 30.94 171.663 29.488L172.587 28.96L172.807 28.212C173.159 27.024 173.467 25 173.555 23.768L173.599 22.624L173.159 23.108C172.895 23.416 172.235 24.164 171.707 24.78C166.471 30.984 162.995 33.844 159.871 34.504C159.035 34.68 158.507 34.68 157.759 34.504C156.175 34.064 155.031 32.832 154.503 30.984C154.239 30.016 154.283 27.508 154.591 26.012C155.779 20.028 160.003 12.856 164.623 8.984C169.859 4.628 174.611 4.76 176.019 9.292C176.151 9.732 176.151 10.172 176.151 11.14C176.151 14.484 174.963 17.652 173.687 17.652C173.335 17.652 172.939 17.3 172.939 16.948ZM171.531 31.776C171.927 31.028 172.191 30.368 172.147 30.324C172.103 30.28 170.607 31.292 169.771 31.952C168.847 32.744 167.219 34.416 166.735 35.12C166.075 36.176 165.855 37.1 166.119 37.584C166.295 37.892 166.867 37.76 167.483 37.276C168.759 36.352 170.343 34.196 171.531 31.776Z" fill="black"/>
</svg>
